<svg xmlns="http://www.w3.org/2000/svg" xmlns:xlink="http://www.w3.org/1999/xlink" width="3000" zoomAndPan="magnify" viewBox="0 0 2250 2250.000011" height="3000" preserveAspectRatio="xMidYMid meet" version="1.2"><defs/><g id="1d709d1efc"><g style="fill:#333333;fill-opacity:1;"><g transform="translate(595.349172, 1112.845301)"><path style="stroke:none" d="M 168.75 -130.140625 C 168.75 -123.335938 166.925781 -116.695312 163.28125 -110.21875 C 159.632812 -103.75 154.171875 -98.125 146.890625 -93.34375 C 139.609375 -88.570312 130.867188 -85.296875 120.671875 -83.515625 L 140.09375 -25.734375 C 142.195312 -19.585938 144.054688 -15.054688 145.671875 -12.140625 C 147.296875 -9.222656 149.320312 -7.238281 151.75 -6.1875 C 154.175781 -5.132812 157.65625 -4.53125 162.1875 -4.375 L 160.96875 0 L 113.875 0 L 86.4375 -81.34375 L 79.15625 -81.34375 L 63.609375 -27.4375 C 62.148438 -22.414062 61.421875 -18.445312 61.421875 -15.53125 C 61.421875 -11.164062 62.957031 -8.210938 66.03125 -6.671875 C 69.113281 -5.140625 74.132812 -4.375 81.09375 -4.375 L 79.875 0 L 3.15625 0 L 4.375 -4.375 C 9.382812 -4.851562 13.265625 -5.78125 16.015625 -7.15625 C 18.773438 -8.53125 20.921875 -10.515625 22.453125 -13.109375 C 23.992188 -15.703125 25.492188 -19.585938 26.953125 -24.765625 L 59.734375 -138.875 C 61.515625 -144.863281 62.40625 -149.394531 62.40625 -152.46875 C 62.40625 -156.6875 60.988281 -159.398438 58.15625 -160.609375 C 55.320312 -161.828125 50.019531 -162.4375 42.25 -162.4375 L 43.453125 -166.796875 L 117.515625 -166.796875 C 132.398438 -166.796875 144.660156 -163.921875 154.296875 -158.171875 C 163.929688 -152.429688 168.75 -143.085938 168.75 -130.140625 Z M 100.765625 -157.09375 L 81.34375 -88.859375 C 84.25 -88.378906 87 -88.140625 89.59375 -88.140625 C 97.519531 -88.140625 104.597656 -90.039062 110.828125 -93.84375 C 117.066406 -97.644531 121.925781 -102.90625 125.40625 -109.625 C 128.882812 -116.34375 130.625 -123.828125 130.625 -132.078125 C 130.625 -139.691406 128.4375 -145.84375 124.0625 -150.53125 C 119.695312 -155.226562 113.628906 -157.578125 105.859375 -157.578125 C 104.722656 -157.578125 103.023438 -157.414062 100.765625 -157.09375 Z M 100.765625 -157.09375 "/></g></g><g style="fill:#333333;fill-opacity:1;"><g transform="translate(761.177542, 1112.845301)"><path style="stroke:none" d="M 69.203125 -110.953125 C 73.734375 -110.953125 77.414062 -109.695312 80.25 -107.1875 C 83.082031 -104.6875 84.578125 -100.84375 84.734375 -95.65625 L 85.21875 -95.65625 L 88.859375 -108.28125 L 119.21875 -108.28125 L 97.359375 -37.640625 C 97.203125 -37.148438 96.554688 -34.960938 95.421875 -31.078125 C 94.285156 -27.191406 93.71875 -23.390625 93.71875 -19.671875 C 93.71875 -18.046875 94.160156 -16.664062 95.046875 -15.53125 C 95.941406 -14.40625 97.035156 -13.84375 98.328125 -13.84375 C 100.753906 -13.84375 103.265625 -15.132812 105.859375 -17.71875 C 108.453125 -20.3125 110.960938 -24.035156 113.390625 -28.890625 L 117.515625 -26.46875 C 113.628906 -17.238281 108.445312 -10.035156 101.96875 -4.859375 C 95.5 0.316406 88.296875 2.90625 80.359375 2.90625 C 74.703125 2.90625 70.296875 1.53125 67.140625 -1.21875 C 63.984375 -3.96875 62.40625 -7.851562 62.40625 -12.875 C 62.40625 -15.945312 62.726562 -19.0625 63.375 -22.21875 C 64.019531 -25.375 65.234375 -30.023438 67.015625 -36.171875 L 66.53125 -36.65625 C 59.40625 -22.09375 52.804688 -11.859375 46.734375 -5.953125 C 40.671875 -0.046875 34.316406 2.90625 27.671875 2.90625 C 21.035156 2.90625 15.773438 0.238281 11.890625 -5.09375 C 8.003906 -10.4375 6.0625 -17.722656 6.0625 -26.953125 C 6.0625 -40.222656 9.582031 -53.375 16.625 -66.40625 C 23.664062 -79.4375 32.164062 -90.117188 42.125 -98.453125 C 52.082031 -106.785156 61.109375 -110.953125 69.203125 -110.953125 Z M 36.421875 -30.59375 C 36.421875 -27.195312 37.109375 -24.40625 38.484375 -22.21875 C 39.859375 -20.03125 41.757812 -18.9375 44.1875 -18.9375 C 49.207031 -18.9375 54.585938 -23.382812 60.328125 -32.28125 C 66.078125 -41.1875 70.972656 -51.425781 75.015625 -63 C 79.066406 -74.570312 81.09375 -83.351562 81.09375 -89.34375 C 81.09375 -93.550781 80.320312 -97.113281 78.78125 -100.03125 C 77.25 -102.945312 75.1875 -104.40625 72.59375 -104.40625 C 67.09375 -104.40625 61.550781 -99.671875 55.96875 -90.203125 C 50.382812 -80.734375 45.726562 -69.925781 42 -57.78125 C 38.28125 -45.644531 36.421875 -36.582031 36.421875 -30.59375 Z M 36.421875 -30.59375 "/></g></g><g style="fill:#333333;fill-opacity:1;"><g transform="translate(882.574591, 1112.845301)"><path style="stroke:none" d="M 66.765625 -110.953125 L 53.421875 -67.984375 L 53.90625 -67.5 C 71.382812 -96.46875 87.003906 -110.953125 100.765625 -110.953125 C 105.453125 -110.953125 109.289062 -109.453125 112.28125 -106.453125 C 115.28125 -103.460938 116.78125 -99.539062 116.78125 -94.6875 C 116.78125 -89.507812 115.40625 -82.144531 112.65625 -72.59375 L 100.28125 -31.328125 C 99.957031 -30.347656 99.269531 -28.117188 98.21875 -24.640625 C 97.164062 -21.160156 96.640625 -18.9375 96.640625 -17.96875 C 96.640625 -16.832031 96.878906 -15.941406 97.359375 -15.296875 C 97.847656 -14.648438 98.492188 -14.328125 99.296875 -14.328125 C 102.859375 -14.328125 107.71875 -19.910156 113.875 -31.078125 L 117.03125 -27.921875 C 112.65625 -18.691406 107.472656 -11.445312 101.484375 -6.1875 C 95.492188 -0.925781 88.941406 1.703125 81.828125 1.703125 C 76.960938 1.703125 73.035156 0.410156 70.046875 -2.171875 C 67.054688 -4.765625 65.5625 -8.164062 65.5625 -12.375 C 65.5625 -14.320312 65.882812 -16.75 66.53125 -19.65625 C 67.175781 -22.570312 68.628906 -27.753906 70.890625 -35.203125 L 83.03125 -75.03125 C 83.195312 -75.675781 83.644531 -77.25 84.375 -79.75 C 85.101562 -82.257812 85.46875 -84.082031 85.46875 -85.21875 C 85.46875 -86.1875 85.140625 -87.078125 84.484375 -87.890625 C 83.835938 -88.703125 83.03125 -89.109375 82.0625 -89.109375 C 78.664062 -89.109375 74.5 -86.597656 69.5625 -81.578125 C 64.625 -76.554688 59.726562 -69.796875 54.875 -61.296875 C 50.019531 -52.804688 46.050781 -43.539062 42.96875 -33.5 L 32.78125 0 L 2.421875 0 L 23.0625 -67.25 L 24.515625 -72.109375 C 25.972656 -76.804688 27.109375 -80.691406 27.921875 -83.765625 C 28.734375 -86.835938 29.140625 -89.1875 29.140625 -90.8125 C 29.140625 -96.632812 25.171875 -99.546875 17.234375 -99.546875 L 18.703125 -103.921875 L 62.40625 -110.953125 Z M 66.765625 -110.953125 "/></g></g><g style="fill:#333333;fill-opacity:1;"><g transform="translate(1003.971651, 1112.845301)"><path style="stroke:none" d="M 70.65625 -110.953125 C 76 -110.953125 80.410156 -110.503906 83.890625 -109.609375 C 87.367188 -108.722656 91.210938 -107.148438 95.421875 -104.890625 L 127.21875 -104.890625 L 122.859375 -91.296875 L 106.59375 -91.296875 C 107.882812 -88.378906 108.769531 -85.945312 109.25 -84 C 109.738281 -82.0625 109.984375 -79.878906 109.984375 -77.453125 C 109.984375 -70.328125 107.835938 -63.6875 103.546875 -57.53125 C 99.265625 -51.382812 93.441406 -46.53125 86.078125 -42.96875 C 78.710938 -39.414062 70.65625 -37.640625 61.90625 -37.640625 C 57.539062 -37.640625 53.007812 -38.203125 48.3125 -39.328125 C 44.269531 -37.390625 41.394531 -35.609375 39.6875 -33.984375 C 37.988281 -32.367188 37.140625 -30.832031 37.140625 -29.375 C 37.140625 -26.132812 40.460938 -23.382812 47.109375 -21.125 L 71.375 -13.59375 C 79.632812 -11.007812 85.867188 -7.285156 90.078125 -2.421875 C 94.285156 2.429688 96.390625 8.335938 96.390625 15.296875 C 96.390625 26.304688 91.53125 35.085938 81.8125 41.640625 C 72.101562 48.191406 58.992188 51.46875 42.484375 51.46875 C 26.140625 51.46875 14.039062 49.078125 6.1875 44.296875 C -1.65625 39.523438 -5.578125 33.5 -5.578125 26.21875 C -5.578125 20.226562 -2.546875 15.25 3.515625 11.28125 C 9.585938 7.320312 17.5625 4.367188 27.4375 2.421875 C 23.226562 -0.160156 20.148438 -2.828125 18.203125 -5.578125 C 16.265625 -8.335938 15.296875 -11.578125 15.296875 -15.296875 C 15.296875 -20.472656 17.273438 -25.164062 21.234375 -29.375 C 25.203125 -33.582031 32.125 -37.550781 42 -41.28125 C 34.394531 -44.675781 28.851562 -48.71875 25.375 -53.40625 C 21.894531 -58.101562 20.15625 -63.53125 20.15625 -69.6875 C 20.15625 -76.320312 22.132812 -82.832031 26.09375 -89.21875 C 30.0625 -95.613281 35.890625 -100.832031 43.578125 -104.875 C 51.265625 -108.925781 60.289062 -110.953125 70.65625 -110.953125 Z M 47.34375 -51.953125 C 47.34375 -49.046875 48.191406 -46.738281 49.890625 -45.03125 C 51.585938 -43.332031 53.894531 -42.484375 56.8125 -42.484375 C 65.070312 -42.484375 71.546875 -50.335938 76.234375 -66.046875 L 80.359375 -79.640625 C 82.304688 -85.953125 83.28125 -91.375 83.28125 -95.90625 C 83.28125 -102.863281 79.960938 -106.34375 73.328125 -106.34375 C 68.953125 -106.34375 65.425781 -104.519531 62.75 -100.875 C 60.082031 -97.238281 57.535156 -91.613281 55.109375 -84 L 50.265625 -68.46875 C 49.453125 -66.039062 48.757812 -63.25 48.1875 -60.09375 C 47.625 -56.9375 47.34375 -54.222656 47.34375 -51.953125 Z M 14.5625 26.21875 C 14.5625 32.695312 17.109375 37.796875 22.203125 41.515625 C 27.304688 45.242188 34.148438 47.109375 42.734375 47.109375 C 51.148438 47.109375 58.023438 45.363281 63.359375 41.875 C 68.703125 38.394531 71.375 33.828125 71.375 28.171875 C 71.375 22.660156 69.429688 18.691406 65.546875 16.265625 C 61.671875 13.835938 55.523438 11.488281 47.109375 9.21875 C 40.953125 7.601562 36.335938 6.226562 33.265625 5.09375 C 27.273438 6.71875 22.660156 9.1875 19.421875 12.5 C 16.179688 15.820312 14.5625 20.394531 14.5625 26.21875 Z M 14.5625 26.21875 "/></g></g><g style="fill:#333333;fill-opacity:1;"><g transform="translate(1118.327682, 1112.845301)"><path style="stroke:none" d="M 69.203125 -110.953125 C 73.734375 -110.953125 77.414062 -109.695312 80.25 -107.1875 C 83.082031 -104.6875 84.578125 -100.84375 84.734375 -95.65625 L 85.21875 -95.65625 L 88.859375 -108.28125 L 119.21875 -108.28125 L 97.359375 -37.640625 C 97.203125 -37.148438 96.554688 -34.960938 95.421875 -31.078125 C 94.285156 -27.191406 93.71875 -23.390625 93.71875 -19.671875 C 93.71875 -18.046875 94.160156 -16.664062 95.046875 -15.53125 C 95.941406 -14.40625 97.035156 -13.84375 98.328125 -13.84375 C 100.753906 -13.84375 103.265625 -15.132812 105.859375 -17.71875 C 108.453125 -20.3125 110.960938 -24.035156 113.390625 -28.890625 L 117.515625 -26.46875 C 113.628906 -17.238281 108.445312 -10.035156 101.96875 -4.859375 C 95.5 0.316406 88.296875 2.90625 80.359375 2.90625 C 74.703125 2.90625 70.296875 1.53125 67.140625 -1.21875 C 63.984375 -3.96875 62.40625 -7.851562 62.40625 -12.875 C 62.40625 -15.945312 62.726562 -19.0625 63.375 -22.21875 C 64.019531 -25.375 65.234375 -30.023438 67.015625 -36.171875 L 66.53125 -36.65625 C 59.40625 -22.09375 52.804688 -11.859375 46.734375 -5.953125 C 40.671875 -0.046875 34.316406 2.90625 27.671875 2.90625 C 21.035156 2.90625 15.773438 0.238281 11.890625 -5.09375 C 8.003906 -10.4375 6.0625 -17.722656 6.0625 -26.953125 C 6.0625 -40.222656 9.582031 -53.375 16.625 -66.40625 C 23.664062 -79.4375 32.164062 -90.117188 42.125 -98.453125 C 52.082031 -106.785156 61.109375 -110.953125 69.203125 -110.953125 Z M 36.421875 -30.59375 C 36.421875 -27.195312 37.109375 -24.40625 38.484375 -22.21875 C 39.859375 -20.03125 41.757812 -18.9375 44.1875 -18.9375 C 49.207031 -18.9375 54.585938 -23.382812 60.328125 -32.28125 C 66.078125 -41.1875 70.972656 -51.425781 75.015625 -63 C 79.066406 -74.570312 81.09375 -83.351562 81.09375 -89.34375 C 81.09375 -93.550781 80.320312 -97.113281 78.78125 -100.03125 C 77.25 -102.945312 75.1875 -104.40625 72.59375 -104.40625 C 67.09375 -104.40625 61.550781 -99.671875 55.96875 -90.203125 C 50.382812 -80.734375 45.726562 -69.925781 42 -57.78125 C 38.28125 -45.644531 36.421875 -36.582031 36.421875 -30.59375 Z M 36.421875 -30.59375 "/></g></g><g style="fill:#333333;fill-opacity:1;"><g transform="translate(1239.724742, 1112.845301)"><path style="stroke:none" d="M 131.109375 -170.4375 C 143.410156 -170.4375 154.132812 -167.882812 163.28125 -162.78125 C 172.425781 -157.6875 179.425781 -150.445312 184.28125 -141.0625 C 189.132812 -131.675781 191.5625 -120.671875 191.5625 -108.046875 C 191.5625 -91.367188 186.378906 -74.289062 176.015625 -56.8125 C 165.660156 -39.332031 151.984375 -24.882812 134.984375 -13.46875 C 117.992188 -2.0625 100.03125 3.640625 81.09375 3.640625 C 69.757812 3.640625 59.640625 1.050781 50.734375 -4.125 C 41.835938 -9.300781 34.835938 -16.460938 29.734375 -25.609375 C 24.640625 -34.753906 22.09375 -45.078125 22.09375 -56.578125 C 22.09375 -75.191406 27.351562 -93.316406 37.875 -110.953125 C 48.394531 -128.597656 62.113281 -142.921875 79.03125 -153.921875 C 95.945312 -164.929688 113.304688 -170.4375 131.109375 -170.4375 Z M 76 -111.203125 C 70.976562 -98.734375 67.09375 -86.066406 64.34375 -73.203125 C 61.59375 -60.335938 60.21875 -49.9375 60.21875 -42 C 60.21875 -30.675781 62.601562 -21.773438 67.375 -15.296875 C 72.144531 -8.816406 78.742188 -5.578125 87.171875 -5.578125 C 101.242188 -5.578125 113.257812 -12.984375 123.21875 -27.796875 C 133.175781 -42.609375 140.703125 -59.6875 145.796875 -79.03125 C 150.898438 -98.375 153.453125 -113.789062 153.453125 -125.28125 C 153.453125 -136.125 151.304688 -144.820312 147.015625 -151.375 C 142.722656 -157.9375 136.453125 -161.21875 128.203125 -161.21875 C 116.703125 -161.21875 106.625 -156.601562 97.96875 -147.375 C 89.3125 -138.144531 81.988281 -126.085938 76 -111.203125 Z M 76 -111.203125 "/></g></g><g style="fill:#333333;fill-opacity:1;"><g transform="translate(1426.919065, 1112.845301)"><path style="stroke:none" d="M 66.765625 -110.953125 L 53.421875 -67.984375 L 53.90625 -67.5 C 71.382812 -96.46875 87.003906 -110.953125 100.765625 -110.953125 C 105.453125 -110.953125 109.289062 -109.453125 112.28125 -106.453125 C 115.28125 -103.460938 116.78125 -99.539062 116.78125 -94.6875 C 116.78125 -89.507812 115.40625 -82.144531 112.65625 -72.59375 L 100.28125 -31.328125 C 99.957031 -30.347656 99.269531 -28.117188 98.21875 -24.640625 C 97.164062 -21.160156 96.640625 -18.9375 96.640625 -17.96875 C 96.640625 -16.832031 96.878906 -15.941406 97.359375 -15.296875 C 97.847656 -14.648438 98.492188 -14.328125 99.296875 -14.328125 C 102.859375 -14.328125 107.71875 -19.910156 113.875 -31.078125 L 117.03125 -27.921875 C 112.65625 -18.691406 107.472656 -11.445312 101.484375 -6.1875 C 95.492188 -0.925781 88.941406 1.703125 81.828125 1.703125 C 76.960938 1.703125 73.035156 0.410156 70.046875 -2.171875 C 67.054688 -4.765625 65.5625 -8.164062 65.5625 -12.375 C 65.5625 -14.320312 65.882812 -16.75 66.53125 -19.65625 C 67.175781 -22.570312 68.628906 -27.753906 70.890625 -35.203125 L 83.03125 -75.03125 C 83.195312 -75.675781 83.644531 -77.25 84.375 -79.75 C 85.101562 -82.257812 85.46875 -84.082031 85.46875 -85.21875 C 85.46875 -86.1875 85.140625 -87.078125 84.484375 -87.890625 C 83.835938 -88.703125 83.03125 -89.109375 82.0625 -89.109375 C 78.664062 -89.109375 74.5 -86.597656 69.5625 -81.578125 C 64.625 -76.554688 59.726562 -69.796875 54.875 -61.296875 C 50.019531 -52.804688 46.050781 -43.539062 42.96875 -33.5 L 32.78125 0 L 2.421875 0 L 23.0625 -67.25 L 24.515625 -72.109375 C 25.972656 -76.804688 27.109375 -80.691406 27.921875 -83.765625 C 28.734375 -86.835938 29.140625 -89.1875 29.140625 -90.8125 C 29.140625 -96.632812 25.171875 -99.546875 17.234375 -99.546875 L 18.703125 -103.921875 L 62.40625 -110.953125 Z M 66.765625 -110.953125 "/></g></g><g style="fill:#333333;fill-opacity:1;"><g transform="translate(1548.316126, 1112.845301)"><path style="stroke:none" d="M 82.3125 -110.953125 C 88.625 -110.953125 93.554688 -109.492188 97.109375 -106.578125 C 100.671875 -103.671875 102.453125 -99.546875 102.453125 -94.203125 C 102.453125 -86.429688 99.617188 -78.90625 93.953125 -71.625 C 88.296875 -64.34375 80.40625 -58.3125 70.28125 -53.53125 C 60.164062 -48.757812 48.878906 -46.050781 36.421875 -45.40625 C 36.097656 -43.625 35.9375 -40.953125 35.9375 -37.390625 C 35.9375 -28.484375 37.710938 -22.085938 41.265625 -18.203125 C 44.828125 -14.316406 49.363281 -12.375 54.875 -12.375 C 61.34375 -12.375 67.25 -13.867188 72.59375 -16.859375 C 77.9375 -19.859375 83.28125 -24.113281 88.625 -29.625 L 91.53125 -26.21875 C 75.832031 -6.800781 58.675781 2.90625 40.0625 2.90625 C 29.539062 2.90625 21.40625 -0.00390625 15.65625 -5.828125 C 9.914062 -11.648438 7.046875 -19.820312 7.046875 -30.34375 C 7.046875 -43.625 10.765625 -56.492188 18.203125 -68.953125 C 25.648438 -81.421875 35.238281 -91.535156 46.96875 -99.296875 C 58.707031 -107.066406 70.488281 -110.953125 82.3125 -110.953125 Z M 37.875 -50.75 C 45.15625 -51.71875 50.414062 -52.890625 53.65625 -54.265625 C 56.894531 -55.640625 60.210938 -58.109375 63.609375 -61.671875 C 68.460938 -66.691406 72.019531 -72.554688 74.28125 -79.265625 C 76.550781 -85.984375 77.6875 -91.773438 77.6875 -96.640625 C 77.6875 -101.816406 75.828125 -104.40625 72.109375 -104.40625 C 68.546875 -104.40625 64.539062 -101.8125 60.09375 -96.625 C 55.644531 -91.445312 51.4375 -84.726562 47.46875 -76.46875 C 43.5 -68.21875 40.300781 -59.644531 37.875 -50.75 Z M 37.875 -50.75 "/></g></g><g style="fill:#333333;fill-opacity:1;"><g transform="translate(1082.061419, 1267.789518)"><path style="stroke:none" d="M 108.640625 -90.765625 L 105.375 -90.765625 C 104.6875 -96.492188 101.960938 -101.390625 97.203125 -105.453125 C 92.453125 -109.523438 85.257812 -111.5625 75.625 -111.5625 L 70.296875 -111.5625 L 57.40625 -66.515625 L 60.5 -66.515625 C 66.34375 -66.515625 71.582031 -67.890625 76.21875 -70.640625 C 80.863281 -73.390625 84.679688 -77.457031 87.671875 -82.84375 L 91.109375 -82.84375 L 79.234375 -41.59375 L 75.796875 -41.59375 C 76.023438 -43.425781 76.140625 -44.742188 76.140625 -45.546875 C 76.140625 -50.242188 74.390625 -53.820312 70.890625 -56.28125 C 67.398438 -58.75 62.273438 -59.984375 55.515625 -59.984375 L 44 -19.421875 C 42.851562 -15.296875 42.28125 -12.546875 42.28125 -11.171875 C 42.28125 -8.191406 43.394531 -6.097656 45.625 -4.890625 C 47.863281 -3.691406 51.503906 -3.09375 56.546875 -3.09375 L 55.515625 0 L 2.75 0 L 2.75 -3.09375 C 7.332031 -3.664062 10.679688 -4.984375 12.796875 -7.046875 C 14.921875 -9.109375 16.785156 -13.003906 18.390625 -18.734375 L 40.21875 -95.40625 C 41.019531 -98.269531 41.648438 -100.644531 42.109375 -102.53125 C 42.566406 -104.425781 42.796875 -105.890625 42.796875 -106.921875 C 42.796875 -109.210938 41.847656 -111.128906 39.953125 -112.671875 C 38.066406 -114.222656 35.117188 -115 31.109375 -115 L 28.703125 -115 L 29.5625 -118.09375 L 115.34375 -118.09375 Z M 108.640625 -90.765625 "/></g></g><g style="fill:#333333;fill-opacity:1;"><g transform="translate(1185.878873, 1267.789518)"><path style="stroke:none" d="M 39.875 -120.671875 C 43.425781 -120.671875 46.40625 -119.46875 48.8125 -117.0625 C 51.21875 -114.65625 52.421875 -111.675781 52.421875 -108.125 C 52.421875 -104.570312 51.21875 -101.5625 48.8125 -99.09375 C 46.40625 -96.632812 43.425781 -95.40625 39.875 -95.40625 C 36.320312 -95.40625 33.3125 -96.632812 30.84375 -99.09375 C 28.382812 -101.5625 27.15625 -104.570312 27.15625 -108.125 C 27.15625 -111.675781 28.382812 -114.65625 30.84375 -117.0625 C 33.3125 -119.46875 36.320312 -120.671875 39.875 -120.671875 Z M 25.78125 -17.1875 C 24.976562 -14.4375 24.578125 -12.71875 24.578125 -12.03125 C 24.578125 -10.082031 25.320312 -9.109375 26.8125 -9.109375 C 28.414062 -9.109375 30.101562 -10.023438 31.875 -11.859375 C 33.65625 -13.691406 36.265625 -17.015625 39.703125 -21.828125 L 42.109375 -19.59375 C 36.953125 -11.6875 32.394531 -6.097656 28.4375 -2.828125 C 24.488281 0.429688 20.050781 2.0625 15.125 2.0625 C 11.34375 2.0625 8.304688 1.085938 6.015625 -0.859375 C 3.722656 -2.804688 2.578125 -5.382812 2.578125 -8.59375 C 2.578125 -11 3.148438 -14.09375 4.296875 -17.875 L 16.15625 -55.859375 C 17.414062 -60.328125 18.046875 -63.078125 18.046875 -64.109375 C 18.046875 -66.171875 17.210938 -67.6875 15.546875 -68.65625 C 13.890625 -69.632812 11.742188 -70.125 9.109375 -70.125 L 8.25 -70.125 L 9.28125 -73.5625 L 41.25 -78.546875 L 44.515625 -78.546875 Z M 25.78125 -17.1875 "/></g></g><g style="fill:#333333;fill-opacity:1;"><g transform="translate(1232.459221, 1267.789518)"><path style="stroke:none" d="M 47.265625 -78.546875 L 37.8125 -48.125 L 38.15625 -47.78125 C 50.53125 -68.289062 61.585938 -78.546875 71.328125 -78.546875 C 74.648438 -78.546875 77.367188 -77.484375 79.484375 -75.359375 C 81.609375 -73.242188 82.671875 -70.46875 82.671875 -67.03125 C 82.671875 -63.363281 81.695312 -58.148438 79.75 -51.390625 L 70.984375 -22.171875 C 70.753906 -21.484375 70.265625 -19.90625 69.515625 -17.4375 C 68.773438 -14.976562 68.40625 -13.40625 68.40625 -12.71875 C 68.40625 -11.914062 68.578125 -11.285156 68.921875 -10.828125 C 69.265625 -10.367188 69.722656 -10.140625 70.296875 -10.140625 C 72.816406 -10.140625 76.253906 -14.09375 80.609375 -22 L 82.84375 -19.765625 C 79.75 -13.234375 76.082031 -8.101562 71.84375 -4.375 C 67.601562 -0.65625 62.960938 1.203125 57.921875 1.203125 C 54.484375 1.203125 51.703125 0.285156 49.578125 -1.546875 C 47.460938 -3.378906 46.40625 -5.785156 46.40625 -8.765625 C 46.40625 -10.140625 46.632812 -11.859375 47.09375 -13.921875 C 47.550781 -15.984375 48.582031 -19.648438 50.1875 -24.921875 L 58.78125 -53.109375 C 58.894531 -53.566406 59.207031 -54.679688 59.71875 -56.453125 C 60.238281 -58.234375 60.5 -59.523438 60.5 -60.328125 C 60.5 -61.015625 60.269531 -61.644531 59.8125 -62.21875 C 59.351562 -62.789062 58.78125 -63.078125 58.09375 -63.078125 C 55.6875 -63.078125 52.734375 -61.300781 49.234375 -57.75 C 45.742188 -54.195312 42.28125 -49.410156 38.84375 -43.390625 C 35.40625 -37.378906 32.597656 -30.820312 30.421875 -23.71875 L 23.203125 0 L 1.71875 0 L 16.328125 -47.609375 L 17.359375 -51.046875 C 18.390625 -54.367188 19.191406 -57.117188 19.765625 -59.296875 C 20.335938 -61.472656 20.625 -63.132812 20.625 -64.28125 C 20.625 -68.40625 17.816406 -70.46875 12.203125 -70.46875 L 13.234375 -73.5625 L 44.171875 -78.546875 Z M 47.265625 -78.546875 "/></g></g><g style="fill:#333333;fill-opacity:1;"><g transform="translate(1318.400811, 1267.789518)"><path style="stroke:none" d="M 48.984375 -78.546875 C 52.191406 -78.546875 54.796875 -77.65625 56.796875 -75.875 C 58.804688 -74.101562 59.867188 -71.382812 59.984375 -67.71875 L 60.328125 -67.71875 L 62.90625 -76.65625 L 84.390625 -76.65625 L 68.921875 -26.640625 C 68.804688 -26.296875 68.347656 -24.75 67.546875 -22 C 66.742188 -19.25 66.34375 -16.554688 66.34375 -13.921875 C 66.34375 -12.773438 66.65625 -11.800781 67.28125 -11 C 67.914062 -10.195312 68.691406 -9.796875 69.609375 -9.796875 C 71.328125 -9.796875 73.101562 -10.710938 74.9375 -12.546875 C 76.769531 -14.378906 78.546875 -17.015625 80.265625 -20.453125 L 83.1875 -18.734375 C 80.4375 -12.203125 76.769531 -7.101562 72.1875 -3.4375 C 67.601562 0.226562 62.503906 2.0625 56.890625 2.0625 C 52.878906 2.0625 49.753906 1.085938 47.515625 -0.859375 C 45.285156 -2.804688 44.171875 -5.554688 44.171875 -9.109375 C 44.171875 -11.285156 44.398438 -13.488281 44.859375 -15.71875 C 45.316406 -17.957031 46.175781 -21.253906 47.4375 -25.609375 L 47.09375 -25.953125 C 42.050781 -15.640625 37.378906 -8.390625 33.078125 -4.203125 C 28.785156 -0.0234375 24.289062 2.0625 19.59375 2.0625 C 14.894531 2.0625 11.171875 0.171875 8.421875 -3.609375 C 5.671875 -7.390625 4.296875 -12.546875 4.296875 -19.078125 C 4.296875 -28.472656 6.785156 -37.78125 11.765625 -47 C 16.753906 -56.226562 22.769531 -63.789062 29.8125 -69.6875 C 36.863281 -75.59375 43.253906 -78.546875 48.984375 -78.546875 Z M 25.78125 -21.65625 C 25.78125 -19.25 26.265625 -17.269531 27.234375 -15.71875 C 28.210938 -14.175781 29.5625 -13.40625 31.28125 -13.40625 C 34.832031 -13.40625 38.640625 -16.554688 42.703125 -22.859375 C 46.773438 -29.160156 50.242188 -36.40625 53.109375 -44.59375 C 55.972656 -52.789062 57.40625 -59.007812 57.40625 -63.25 C 57.40625 -66.226562 56.859375 -68.75 55.765625 -70.8125 C 54.679688 -72.875 53.222656 -73.90625 51.390625 -73.90625 C 47.492188 -73.90625 43.566406 -70.550781 39.609375 -63.84375 C 35.660156 -57.144531 32.367188 -49.5 29.734375 -40.90625 C 27.097656 -32.3125 25.78125 -25.894531 25.78125 -21.65625 Z M 25.78125 -21.65625 "/></g></g><g style="fill:#333333;fill-opacity:1;"><g transform="translate(1404.342426, 1267.789518)"><path style="stroke:none" d="M 47.265625 -78.546875 L 37.8125 -48.125 L 38.15625 -47.78125 C 50.53125 -68.289062 61.585938 -78.546875 71.328125 -78.546875 C 74.648438 -78.546875 77.367188 -77.484375 79.484375 -75.359375 C 81.609375 -73.242188 82.671875 -70.46875 82.671875 -67.03125 C 82.671875 -63.363281 81.695312 -58.148438 79.75 -51.390625 L 70.984375 -22.171875 C 70.753906 -21.484375 70.265625 -19.90625 69.515625 -17.4375 C 68.773438 -14.976562 68.40625 -13.40625 68.40625 -12.71875 C 68.40625 -11.914062 68.578125 -11.285156 68.921875 -10.828125 C 69.265625 -10.367188 69.722656 -10.140625 70.296875 -10.140625 C 72.816406 -10.140625 76.253906 -14.09375 80.609375 -22 L 82.84375 -19.765625 C 79.75 -13.234375 76.082031 -8.101562 71.84375 -4.375 C 67.601562 -0.65625 62.960938 1.203125 57.921875 1.203125 C 54.484375 1.203125 51.703125 0.285156 49.578125 -1.546875 C 47.460938 -3.378906 46.40625 -5.785156 46.40625 -8.765625 C 46.40625 -10.140625 46.632812 -11.859375 47.09375 -13.921875 C 47.550781 -15.984375 48.582031 -19.648438 50.1875 -24.921875 L 58.78125 -53.109375 C 58.894531 -53.566406 59.207031 -54.679688 59.71875 -56.453125 C 60.238281 -58.234375 60.5 -59.523438 60.5 -60.328125 C 60.5 -61.015625 60.269531 -61.644531 59.8125 -62.21875 C 59.351562 -62.789062 58.78125 -63.078125 58.09375 -63.078125 C 55.6875 -63.078125 52.734375 -61.300781 49.234375 -57.75 C 45.742188 -54.195312 42.28125 -49.410156 38.84375 -43.390625 C 35.40625 -37.378906 32.597656 -30.820312 30.421875 -23.71875 L 23.203125 0 L 1.71875 0 L 16.328125 -47.609375 L 17.359375 -51.046875 C 18.390625 -54.367188 19.191406 -57.117188 19.765625 -59.296875 C 20.335938 -61.472656 20.625 -63.132812 20.625 -64.28125 C 20.625 -68.40625 17.816406 -70.46875 12.203125 -70.46875 L 13.234375 -73.5625 L 44.171875 -78.546875 Z M 47.265625 -78.546875 "/></g></g><g style="fill:#333333;fill-opacity:1;"><g transform="translate(1490.284041, 1267.789518)"><path style="stroke:none" d="M 59.125 -78.546875 C 64.28125 -78.546875 68.40625 -77.253906 71.5 -74.671875 C 74.59375 -72.097656 76.140625 -68.691406 76.140625 -64.453125 C 76.140625 -60.554688 74.90625 -57.234375 72.4375 -54.484375 C 69.976562 -51.734375 67.085938 -50.359375 63.765625 -50.359375 C 61.472656 -50.359375 59.492188 -51.1875 57.828125 -52.84375 C 56.171875 -54.507812 55.34375 -56.488281 55.34375 -58.78125 C 55.34375 -60.726562 55.769531 -62.273438 56.625 -63.421875 C 57.488281 -64.566406 58.664062 -65.710938 60.15625 -66.859375 C 61.414062 -67.890625 62.273438 -68.71875 62.734375 -69.34375 C 63.191406 -69.976562 63.421875 -70.753906 63.421875 -71.671875 C 63.421875 -72.703125 62.960938 -73.503906 62.046875 -74.078125 C 61.128906 -74.648438 59.925781 -74.9375 58.4375 -74.9375 C 53.164062 -74.9375 48.351562 -72.15625 44 -66.59375 C 39.644531 -61.039062 36.234375 -54.453125 33.765625 -46.828125 C 31.304688 -39.210938 30.078125 -32.597656 30.078125 -26.984375 C 30.078125 -21.710938 31.335938 -17.5 33.859375 -14.34375 C 36.378906 -11.195312 39.875 -9.625 44.34375 -9.625 C 51.789062 -9.625 58.953125 -13.0625 65.828125 -19.9375 L 68.234375 -18.046875 C 61.929688 -10.828125 56.203125 -5.671875 51.046875 -2.578125 C 45.890625 0.515625 40.273438 2.0625 34.203125 2.0625 C 26.410156 2.0625 20.191406 -0.253906 15.546875 -4.890625 C 10.910156 -9.535156 8.59375 -15.753906 8.59375 -23.546875 C 8.59375 -33.285156 11.3125 -42.363281 16.75 -50.78125 C 22.195312 -59.207031 28.898438 -65.941406 36.859375 -70.984375 C 44.828125 -76.023438 52.25 -78.546875 59.125 -78.546875 Z M 59.125 -78.546875 "/></g></g><g style="fill:#333333;fill-opacity:1;"><g transform="translate(1565.568875, 1267.789518)"><path style="stroke:none" d="M 58.265625 -78.546875 C 62.734375 -78.546875 66.226562 -77.515625 68.75 -75.453125 C 71.269531 -73.390625 72.53125 -70.46875 72.53125 -66.6875 C 72.53125 -61.1875 70.523438 -55.859375 66.515625 -50.703125 C 62.503906 -45.546875 56.914062 -41.273438 49.75 -37.890625 C 42.59375 -34.515625 34.601562 -32.597656 25.78125 -32.140625 C 25.550781 -30.878906 25.4375 -28.988281 25.4375 -26.46875 C 25.4375 -20.164062 26.695312 -15.640625 29.21875 -12.890625 C 31.738281 -10.140625 34.945312 -8.765625 38.84375 -8.765625 C 43.425781 -8.765625 47.609375 -9.820312 51.390625 -11.9375 C 55.171875 -14.0625 58.953125 -17.070312 62.734375 -20.96875 L 64.796875 -18.5625 C 53.679688 -4.8125 41.535156 2.0625 28.359375 2.0625 C 20.910156 2.0625 15.148438 0 11.078125 -4.125 C 7.015625 -8.25 4.984375 -14.035156 4.984375 -21.484375 C 4.984375 -30.878906 7.617188 -39.988281 12.890625 -48.8125 C 18.160156 -57.632812 24.945312 -64.796875 33.25 -70.296875 C 41.5625 -75.796875 49.898438 -78.546875 58.265625 -78.546875 Z M 26.8125 -35.921875 C 31.96875 -36.609375 35.691406 -37.4375 37.984375 -38.40625 C 40.273438 -39.382812 42.625 -41.132812 45.03125 -43.65625 C 48.46875 -47.207031 50.988281 -51.359375 52.59375 -56.109375 C 54.195312 -60.867188 55 -64.96875 55 -68.40625 C 55 -72.070312 53.679688 -73.90625 51.046875 -73.90625 C 48.523438 -73.90625 45.6875 -72.070312 42.53125 -68.40625 C 39.382812 -64.738281 36.40625 -59.984375 33.59375 -54.140625 C 30.789062 -48.296875 28.53125 -42.222656 26.8125 -35.921875 Z M 26.8125 -35.921875 "/></g></g><path style="fill:none;stroke-width:6;stroke-linecap:butt;stroke-linejoin:miter;stroke:#333333;stroke-opacity:1;stroke-miterlimit:4;" d="M -0.00210034 3.000218 L 526.260978 2.997457 " transform="matrix(0.749299,-0.0042715,0.0042715,0.749299,595.324696,1130.290995)"/><path style="fill:none;stroke-width:6;stroke-linecap:butt;stroke-linejoin:miter;stroke:#333333;stroke-opacity:1;stroke-miterlimit:4;" d="M 0.0000135156 2.997666 L 705.272294 3.002089 " transform="matrix(0.749384,-0.00106258,0.00106258,0.749384,1106.258523,1126.542661)"/></g></svg>